# xmcd
#
# Track frame offsets:
#	182
#	14672
#	30835
#	44712
#	56110
#	72275
#	84425
#	105400
#	119407
#	131147
#	142747
#	160405
#	172700
#	185272
#	198992
#	212752
#	225790
#	238327
#	254745
#	272052
#	283185
#	293907
#	309710
#	323947
#	335795
#
# Disc length: 4597 seconds
#
# Revision: 2
# Processed by: cddbd v1.5.1PL0 Copyright (c) Steve Scherf et al.
# Submitted via: EasyCDDAExtractor 8.0.1.1
#
DISCID=7a11f319
DTITLE=Various Artist - 25 Geants Country
DYEAR=1900
DGENRE=Country
TTITLE0=Andre Breton - Un jour a la fois
TTITLE1=Billy Hunter - C'est dur d'etre humble
TTITLE2=Gerry Cormier - Guitare et cadillac
TTITLE3=Bobby Hachey - Mon sourire ma limousine
TTITLE4=John Starr - Always on my mind
TTITLE5=Mariette Labbée - Les cowboys du quebec
TTITLE6=André Breton - Je crois en toi
TTITLE7=Marie King - Adieu amis
TTITLE8=Albert Babin - Je suis fauche
TTITLE9=Daniel Forget - Sans Amour
TTITLE10=Denis Champoux - J'ecoutais willie
TTITLE11=Léo Benoit - Rock and Roll dans le lit
TTITLE12=Denis Champoux - Can't help falling in love
TTITLE13=Carole Anne King - Ring of fire
TTITLE14=Denis Champoux - Musique du tennessee
TTITLE15=Bobby Hachey - Tu est la dans mes miseres
TTITLE16=André Breton - Valse de l'ile aux coudres
TTITLE17=Albert Babin - Je dis des mots d'amour
TTITLE18=Marie King - Cherie
TTITLE19=Billy Hunter - L'encanteur
TTITLE20=John Starr - On the road again
TTITLE21=Carole Anne King - La rose
TTITLE22=André Breton - Cavaliers du ciel
TTITLE23=Marie King - Valse d'un vieil amour
TTITLE24=Denis Champoux - Loving you
EXTD=
EXTT0=
EXTT1=
EXTT2=
EXTT3=
EXTT4=
EXTT5=
EXTT6=
EXTT7=
EXTT8=
EXTT9=
EXTT10=
EXTT11=
EXTT12=
EXTT13=
EXTT14=
EXTT15=
EXTT16=
EXTT17=
EXTT18=
EXTT19=
EXTT20=
EXTT21=
EXTT22=
EXTT23=
EXTT24=
PLAYORDER=
